<?xml version="1.0" encoding="utf-8"?>
<!-- Generator: Adobe Illustrator 23.0.0, SVG Export Plug-In . SVG Version: 6.00 Build 0)  -->
<svg version="1.1" id="Layer_1" xmlns="http://www.w3.org/2000/svg" xmlns:xlink="http://www.w3.org/1999/xlink" x="0px" y="0px"
	 viewBox="0 0 383 485" style="enable-background:new 0 0 383 485;" xml:space="preserve">
<style type="text/css">
	.st0{fill:#EDEFF4;}
	.st1{fill:#FFA99F;}
	.st2{fill:none;stroke:#FFFFFF;stroke-width:0.35;}
	.st3{fill:#565D88;}
	.st4{fill:#8F9ACC;}
	.st5{opacity:0.2;fill:#FFFFFF;}
	.st6{opacity:0.68;fill:#FFFFFF;}
	.st7{opacity:0.2;}
	.st8{fill:#389DF0;}
	.st9{fill:#D7D7DD;}
	.st10{fill:#190900;}
	.st11{fill:#4F262C;}
	.st12{fill:#FFFFFF;}
	.st13{fill:#313354;}
	.st14{fill:#5B2E33;}
	.st15{fill:#8E5B3A;}
	.st16{fill:#BC8561;}
	.st17{fill:#333342;}
	.st18{fill:#663D28;}
	.st19{fill:#F28983;}
	.st20{fill:#C1C1C6;}
	.st21{fill:#DFDFE5;}
	.st22{opacity:0.2;fill:#627EFA;}
	.st23{fill:none;stroke:#C1CDE6;}
	.st24{fill:url(#SVGID_1_);}
	.st25{fill:url(#SVGID_2_);}
	.st26{fill:url(#SVGID_3_);}
	.st27{fill:url(#SVGID_4_);}
	.st28{fill:url(#SVGID_5_);}
	.st29{fill:url(#SVGID_6_);}
	.st30{fill:url(#SVGID_7_);}
	.st31{fill:url(#SVGID_8_);}
	.st32{fill:url(#SVGID_9_);}
	.st33{fill:url(#SVGID_10_);}
	.st34{fill:url(#SVGID_11_);}
	.st35{fill:url(#SVGID_12_);}
	.st36{fill:url(#SVGID_13_);}
	.st37{fill:url(#SVGID_14_);}
	.st38{fill:url(#SVGID_15_);}
	.st39{fill:url(#SVGID_16_);}
	.st40{fill:url(#SVGID_17_);}
	.st41{fill:url(#SVGID_18_);}
	.st42{fill:url(#SVGID_19_);}
	.st43{fill:url(#SVGID_20_);}
	.st44{fill:none;stroke:#C1CDE6;stroke-width:2;}
	.st45{fill:#7C7CBF;}
	.st46{fill:#9F9DE3;}
	.st47{fill:none;stroke:#C1CDE6;stroke-width:0.5;}
	.st48{fill:#9D7CBF;}
	.st49{fill:#C29DE3;}
	.st50{fill:#C1CDE6;}
	.st51{fill:#D5D5DB;}
	.st52{fill:#BBBBBF;}
	.st53{fill:#F9988F;}
	.st54{opacity:0.2;fill:#389DF0;}
	.st55{fill:#5D62AD;}
	.st56{fill:#C18F80;}
	.st57{fill:#86A2DC;}
	.st58{fill:#111111;}
	.st59{fill:#E5E5E5;}
	.st60{fill:#FC5472;}
	.st61{fill:#CBCBD1;}
	.st62{fill:url(#SVGID_21_);}
	.st63{fill:url(#SVGID_22_);}
	.st64{fill:url(#SVGID_23_);}
	.st65{fill:url(#SVGID_24_);}
	.st66{fill:url(#SVGID_25_);}
	.st67{fill:url(#SVGID_26_);}
	.st68{fill:url(#SVGID_27_);}
	.st69{fill:url(#SVGID_28_);}
	.st70{fill:url(#SVGID_29_);}
	.st71{fill:url(#SVGID_30_);}
	.st72{fill:url(#SVGID_31_);}
	.st73{fill:url(#SVGID_32_);}
	.st74{fill:url(#SVGID_33_);}
	.st75{fill:url(#SVGID_34_);}
	.st76{fill:url(#SVGID_35_);}
	.st77{fill:url(#SVGID_36_);}
	.st78{fill:url(#SVGID_37_);}
	.st79{fill:url(#SVGID_38_);}
	.st80{fill:url(#SVGID_39_);}
	.st81{fill:#56597A;}
	.st82{fill:url(#SVGID_40_);}
	.st83{fill:url(#SVGID_41_);}
	.st84{fill:#C18679;}
	.st85{fill:#875B4C;}
	.st86{fill:#9D423F;}
	.st87{fill:#212949;}
	.st88{fill:#6291EA;}
	.st89{fill:#2E2E49;}
	.st90{fill:none;stroke:#FFFFFF;}
	.st91{fill:none;stroke:#512D2D;stroke-width:0.5;}
	.st92{fill:#C18F77;}
	.st93{fill:#B26E3F;}
	.st94{opacity:0.6;}
	.st95{fill:url(#SVGID_42_);}
	.st96{opacity:0.07;fill:#627EFA;}
</style>
<g>
	<path class="st0" d="M357.22,391.91c0,46.68-73.43,84.51-164,84.51c-90.58,0-164-37.84-164-84.51c0-46.68,73.43-84.51,164-84.51
		C283.79,307.4,357.22,345.23,357.22,391.91z"/>
	<g>
		<path class="st1" d="M150.03,172.6c5.18-1.65,0.81,3.54,10.07,5.66l0,0c1.68,2.26,1.34,5.35-0.75,6.9l-1.08,0.8
			c-4.22,3.11-5.85,0.04-6.82-1.28l0,0c-1.68-2.26-7.18-8.36-2.5-11.29L150.03,172.6z"/>
		<polygon class="st2" points="140.53,110.24 149.99,129.15 162.72,121.93 153.14,103.15 		"/>
		<g>
			<g>
				<path class="st3" d="M177.83,164c0.39,0.68,0.15,1.55-0.54,1.93l-21.25,12.02c-0.68,0.38-1.55,0.15-1.93-0.54l-16.64-29.41
					c-0.39-0.68-0.15-1.55,0.54-1.93l21.25-12.02c0.68-0.38,1.55-0.15,1.93,0.54L177.83,164z"/>
				
					<rect x="144.6" y="140.56" transform="matrix(0.8704 -0.4924 0.4924 0.8704 -56.0649 97.5451)" class="st4" width="25.25" height="29.37"/>
				<path class="st5" d="M153.57,137.28l5.58-3.16c0.68-0.39,1.55-0.15,1.93,0.54l16.64,29.41c0.39,0.68,0.14,1.55-0.54,1.93
					l-17.77,10.05"/>
				
					<rect x="144.47" y="146.48" transform="matrix(0.8703 -0.4924 0.4924 0.8703 -55.5927 92.9265)" class="st6" width="8.42" height="11.13"/>
				
					<rect x="147.9" y="155.38" transform="matrix(0.8704 -0.4924 0.4924 0.8704 -56.5589 98.1707)" class="st6" width="20.54" height="2.25"/>
				
					<rect x="151.22" y="158.38" transform="matrix(0.8704 -0.4924 0.4924 0.8704 -59.0206 100.569)" class="st6" width="20.54" height="8"/>
				
					<rect x="153.82" y="140.83" transform="matrix(0.8703 -0.4925 0.4925 0.8703 -51.5238 97.1155)" class="st6" width="9.67" height="11.13"/>
			</g>
			<g class="st7">
				<path class="st8" d="M166.1,114.2c0.72,1.38,1.32,2.76,1.34,3.06c0.02,0.3-1.57,1.44-2.92,2.21l-10.38,5.89
					c-1.36,0.77-2.71,1.41-3.01,1.43c-0.3,0.02-1.39-1.59-2.11-2.97l-8.44-16.21c-0.72-1.38-1.32-2.76-1.34-3.06
					c-0.02-0.3,1.57-1.43,2.92-2.2l10.38-5.9c1.36-0.77,2.71-1.41,3.01-1.43c0.3-0.02,1.39,1.59,2.11,2.97L166.1,114.2z"/>
			</g>
			<g>
				<path class="st9" d="M227.06,132.42l9.87,42.64c0,0-5.13,17.51-22.34-3.32C197.38,150.91,227.06,132.42,227.06,132.42z"/>
				<path class="st10" d="M214.62,324.75c-0.49-0.5-12.65,0.42-12.65,0.42s-3.74,0.18-3.59,2.16c0,0-0.39,5.44,9.91,6.38
					c0,0,6.54,0.62,8.02,1.44c0,0,8.28,0.75,8.3-3.48c0,0-1.21-7.83-2.7-7.36C221.9,324.31,218.58,328.78,214.62,324.75z"/>
				<path class="st10" d="M191.72,329.19c-0.51-0.63-14.3-0.69-14.3-0.69s-4.24-0.14-4.24,2.19c0,0-0.93,6.31,10.59,8.37
					c0,0,9.54,1.51,11.13,2.61c0,0,9.27,1.65,9.67-3.29c0,0-0.4-9.19-2.12-8.78C202.45,329.6,195.83,334.27,191.72,329.19z"/>
				<path class="st11" d="M214.62,323.28c-0.49-0.5-12.65,0.42-12.65,0.42s-3.74,0.18-3.59,2.16c0,0-0.39,5.43,9.91,6.38
					c0,0,6.54,0.62,8.02,1.44c0,0,8.28,0.75,8.3-3.48c0,0-1.21-7.83-2.7-7.36C221.9,322.85,218.58,327.32,214.62,323.28z"/>
				<path class="st12" d="M212.67,318.04l1.24,5.19c0,0-3.65,2.87-0.67,3.46c0,0,7.78,2.87,8.62-2.84l-1.66-7.62L212.67,318.04z"/>
				<path class="st13" d="M203.55,230.03c0,0,1.27,37.53,2.1,41.83l4.5,48.62c0,0,8.67,2.15,11.91-2.96l-1.25-48.55l2.73-37.04
					c0,0,2.03-11.08,1.65-31.21l-18.12-4.89L203.55,230.03z"/>
				<path class="st14" d="M191.91,328.23c-0.51-0.61-14.23-0.66-14.23-0.66s-4.22-0.13-4.22,2.11c0,0-0.92,6.06,10.54,8.04
					c0,0,9.49,1.45,11.07,2.5c0,0,9.22,1.58,9.62-3.16c0,0-0.4-8.83-2.11-8.43C202.58,328.63,195.99,333.11,191.91,328.23z"/>
				<path class="st12" d="M190.2,322.17l0.92,5.93c0,0-4.35,2.9-1.05,3.82c0,0,10.67,4.08,12.12-2.24l-1.19-8.7L190.2,322.17z"/>
				<path class="st13" d="M180.58,225.85c0,0,2.63,41.11,3.16,45.85l3.95,53.5c0,0,10.28,3.16,14.23-2.11l-1.58-53.23l4.91-43.77
					c0,0,8.79-7.62,10.11-29.5l-29.25,18.45L180.58,225.85z"/>
				<path d="M204.21,235.71c0,0,8.41-7.51,8.58-13.42v-1.86c0,0-2.7,9.62-10.15,15.28l-2.31,34.15L204.21,235.71z"/>
				<path class="st1" d="M189.76,109.44c0,0-4.17,15.71,1.72,18.92c0,0,6.8,4.65,15.93-4.86l2.99-9.49
					C210.39,114,203.92,96.92,189.76,109.44z"/>
				<path class="st1" d="M197.24,125.38c0,0,2.56,10.38-1.14,12.94l15.07-6.26c0,0-2.13-5.97-1.85-9.53"/>
				<path class="st15" d="M190.39,109.26c-2.29,0.09-1.89-3.94-1.71-5.38c0.29-2.4,1.68-3.7,4.07-3.83
					c2.32-0.13,4.36,1.21,6.59,1.48c2.3,0.27,4.63,0.35,6.94,0.56c5.26,0.46,7.52,5.27,7.52,9.87c0,2.88-0.29,3.82-1.9,6.25
					c-2.14,3.23-1.44,4.69-3.49,5.7c-1.56,0.76-5.19,1.02-7.02,0.54c-1.17-0.31-3.33-2.57-3.41-3.81c-0.13-2.14-1.05-3.34-1.46-4.16
					c-0.95-1.9-3.24,0.68-4.6,2.18c-1.18-3.72,0.82-8.22-1.26-9.37"/>
				<path class="st16" d="M212.03,117.76c0,0-4.81,3.69-14.6,0.37c0,0-1.2,2.03,3.42,7.21c0,0,5.64,1.29,8.5-0.55
					C209.35,124.78,211.93,118.96,212.03,117.76z"/>
				<path class="st1" d="M193.35,118.2c0,0,0.33-4.24,3.01-3.69c0,0,3.76,1.05-0.58,6.5c0,0-0.31,1.28-2.7,1.09"/>
				<path class="st17" d="M194.94,113.19"/>
				<path class="st18" d="M196.65,100.94c0,0-3.69,4.71,4.35,6.85c0,0-6.38-3.41-1.98-6.41
					C199.02,101.38,197.71,100.76,196.65,100.94z"/>
				<path class="st19" d="M197.85,129.18c0,0,0.61,6.41-0.46,8.7l5.65-10.99C203.04,126.89,198.91,129.18,197.85,129.18z"/>
				<path class="st20" d="M212.38,132.65c0,0,0.17-4.22-0.35-4.57c0,0-13.88,3.52-16.69,10.72l-0.88,2.81L212.38,132.65z"/>
				<path class="st21" d="M207.23,264.09c-7.3,2.22-18.07,4.72-28.5,4.41l0.53-29.8l-1.05-72.89c-2.93-16.58,2.82-19.5,2.82-19.5
					l35.67-16.34c9.95-4.35,10.56,3.51,10.56,3.51l1.11,121.03c0,0-5.13,5.13-12.89,4.99c0,0-1.52-16.15-3.63-16.5v17.92
					C211.85,260.93,209.09,263.53,207.23,264.09z"/>
			</g>
			<path class="st20" d="M227.87,181.96l-0.22-35.52c0,0-0.28,13.65-0.44,35c-0.18,24.86-0.37,58.37-2.34,65.18
				c0,0-1,8.33-9.67,9.33l-0.04,3.79c0,0,7.63,0.5,13.5-5.25L227.87,181.96z"/>
			<path class="st20" d="M178.79,265.12c0,0,31,5.13,31.25-23.5c0,0,2.5-54.38,2.13-64c0,0,0.62,52.16-0.32,65.39l0.19,18.73
				c0,0-6.12,6.89-33.31,6.76L178.79,265.12z"/>
			<g>
				<path class="st22" d="M149.91,151.65c0.38,0.69,0.12,1.55-0.56,1.92L128,166.28c-0.69,0.38-1.55,0.12-1.92-0.56l-16.21-29.65
					c-0.38-0.69-0.12-1.55,0.56-1.92l21.35-12.71c0.69-0.38,1.55-0.12,1.92,0.56L149.91,151.65z"/>
				<line class="st2" x1="116.93" y1="138.97" x2="133.08" y2="129.25"/>
				<line class="st2" x1="118.11" y1="141.46" x2="134.26" y2="131.75"/>
				<line class="st2" x1="119.29" y1="143.96" x2="135.44" y2="134.24"/>
				<line class="st2" x1="120.6" y1="146.06" x2="136.75" y2="136.34"/>
				<line class="st2" x1="121.92" y1="148.16" x2="138.07" y2="138.44"/>
				<line class="st2" x1="123.23" y1="150.26" x2="139.38" y2="140.54"/>
				<line class="st2" x1="124.54" y1="152.36" x2="140.69" y2="142.65"/>
				<line class="st2" x1="125.85" y1="154.46" x2="142.01" y2="144.75"/>
				<line class="st2" x1="127.17" y1="156.56" x2="143.32" y2="146.85"/>
				<line class="st2" x1="128.48" y1="158.67" x2="144.63" y2="148.95"/>
			</g>
			<polygon class="st2" points="142.63,105.12 152.09,124.03 164.83,116.81 155.24,98.03 			"/>
			<polygon class="st2" points="144.21,102.1 153.66,121.01 166.4,113.79 156.82,95.01 			"/>
			<path class="st21" d="M192.54,164.96l-5.17,32.5c-4.5,12.17-15.67,3.67-15.67,3.67l-17.33-13.5c1.83-2.83,6.5-5.83,6.5-5.83
				l12.67,5.67l2.33-29.33c-0.83-11,5.67-12.67,5.67-12.67l14.28-5.8"/>
			<path class="st20" d="M191.55,166.56l-4.26,31.17c0,0-2.08,7.11-8.75,6.23l0.22,5.14c0,0,7.88-1.97,9.52-11.38
				C188.27,197.74,192.65,163.72,191.55,166.56z"/>
			<polygon class="st20" points="175.37,165.47 175.7,191.28 166.51,184.28 173.62,187.35 			"/>
			<path class="st20" d="M218.57,129.38l-35.76,15.64c0,0,8.53,1.2,9.62,14.77c0,0,0.44-11.7-6.12-14.77
				C186.31,145.02,219.01,129.81,218.57,129.38z"/>
		</g>
		<path class="st1" d="M160.15,178.71c-0.02,0.68-0.59,1.21-1.27,1.18l0,0c-0.68-0.02-1.71-0.75-1.68-1.43l0.69-5.36
			c0.02-0.68,0.59-1.21,1.27-1.18l0,0c0.68,0.02,1.21,0.59,1.18,1.27L160.15,178.71z"/>
	</g>
	<g>
		<line class="st23" x1="113.78" y1="81.87" x2="123.34" y2="78.07"/>
		<line class="st23" x1="113.16" y1="87.27" x2="122.72" y2="83.47"/>
		<line class="st23" x1="112.54" y1="92.67" x2="122.1" y2="88.87"/>
		<line class="st23" x1="114.13" y1="102.77" x2="123.69" y2="98.96"/>
		<line class="st23" x1="115.37" y1="106.93" x2="124.93" y2="103.12"/>
		
			<radialGradient id="SVGID_1_" cx="275.1226" cy="-36.3656" r="4.1973" gradientTransform="matrix(0.7556 -0.6551 0.6551 0.7556 -71.0587 276.6911)" gradientUnits="userSpaceOnUse">
			<stop  offset="0" style="stop-color:#CCCCD9"/>
			<stop  offset="0.1857" style="stop-color:#C3C4D4"/>
			<stop  offset="0.484" style="stop-color:#ACB0C6"/>
			<stop  offset="0.7426" style="stop-color:#9299B6"/>
		</radialGradient>
		<path class="st24" d="M112.13,71.25c-0.84-0.96-0.73-2.42,0.23-3.26c0.96-0.84,2.42-0.73,3.26,0.23c0.84,0.96,0.73,2.42-0.23,3.26
			C114.43,72.32,112.97,72.21,112.13,71.25z"/>
		
			<radialGradient id="SVGID_2_" cx="284.9061" cy="-33.6649" r="4.6993" gradientTransform="matrix(0.7556 -0.6551 0.6551 0.7556 -71.0587 276.6911)" gradientUnits="userSpaceOnUse">
			<stop  offset="0" style="stop-color:#CCCCD9"/>
			<stop  offset="0.1857" style="stop-color:#C3C4D4"/>
			<stop  offset="0.484" style="stop-color:#ACB0C6"/>
			<stop  offset="0.7426" style="stop-color:#9299B6"/>
		</radialGradient>
		<path class="st25" d="M121.19,67.15c-0.93-1.08-0.82-2.71,0.26-3.65c1.08-0.94,2.71-0.82,3.65,0.26c0.94,1.08,0.82,2.71-0.26,3.65
			C123.76,68.35,122.13,68.23,121.19,67.15z"/>
		
			<radialGradient id="SVGID_3_" cx="279.8674" cy="-32.3913" r="4.6986" gradientTransform="matrix(0.7556 -0.6551 0.6551 0.7556 -71.0587 276.6911)" gradientUnits="userSpaceOnUse">
			<stop  offset="0" style="stop-color:#CCCCD9"/>
			<stop  offset="0.1857" style="stop-color:#C3C4D4"/>
			<stop  offset="0.484" style="stop-color:#ACB0C6"/>
			<stop  offset="0.7426" style="stop-color:#9299B6"/>
		</radialGradient>
		<path class="st26" d="M118.22,71.42c-0.94-1.08-0.82-2.71,0.26-3.65c1.08-0.94,2.71-0.82,3.65,0.26c0.94,1.08,0.82,2.71-0.26,3.65
			C120.79,72.61,119.16,72.5,118.22,71.42z"/>
		
			<radialGradient id="SVGID_4_" cx="272.1724" cy="-29.9996" r="4.6991" gradientTransform="matrix(0.7556 -0.6551 0.6551 0.7556 -71.0587 276.6911)" gradientUnits="userSpaceOnUse">
			<stop  offset="0" style="stop-color:#CCCCD9"/>
			<stop  offset="0.1857" style="stop-color:#C3C4D4"/>
			<stop  offset="0.484" style="stop-color:#ACB0C6"/>
			<stop  offset="0.7426" style="stop-color:#9299B6"/>
		</radialGradient>
		<path class="st27" d="M113.97,78.27c-0.93-1.08-0.82-2.71,0.26-3.65c1.08-0.94,2.71-0.82,3.65,0.26c0.93,1.08,0.82,2.71-0.26,3.65
			C116.54,79.46,114.91,79.34,113.97,78.27z"/>
		
			<radialGradient id="SVGID_5_" cx="267.412" cy="-28.7464" r="4.6986" gradientTransform="matrix(0.7556 -0.6551 0.6551 0.7556 -71.0587 276.6911)" gradientUnits="userSpaceOnUse">
			<stop  offset="0" style="stop-color:#CCCCD9"/>
			<stop  offset="0.1857" style="stop-color:#C3C4D4"/>
			<stop  offset="0.484" style="stop-color:#ACB0C6"/>
			<stop  offset="0.7426" style="stop-color:#9299B6"/>
		</radialGradient>
		<path class="st28" d="M111.19,82.33c-0.94-1.08-0.82-2.71,0.26-3.65c1.08-0.94,2.71-0.82,3.65,0.26c0.94,1.08,0.82,2.71-0.26,3.65
			C113.76,83.53,112.13,83.41,111.19,82.33z"/>
		
			<radialGradient id="SVGID_6_" cx="263.1187" cy="-25.9112" r="4.6994" gradientTransform="matrix(0.7556 -0.6551 0.6551 0.7556 -71.0587 276.6911)" gradientUnits="userSpaceOnUse">
			<stop  offset="0" style="stop-color:#CCCCD9"/>
			<stop  offset="0.1857" style="stop-color:#C3C4D4"/>
			<stop  offset="0.484" style="stop-color:#ACB0C6"/>
			<stop  offset="0.7426" style="stop-color:#9299B6"/>
		</radialGradient>
		<path class="st29" d="M109.81,87.29c-0.93-1.08-0.82-2.71,0.26-3.65c1.08-0.94,2.71-0.82,3.65,0.26c0.94,1.08,0.82,2.71-0.26,3.65
			C112.38,88.48,110.74,88.36,109.81,87.29z"/>
		
			<radialGradient id="SVGID_7_" cx="259.8067" cy="-22.0909" r="4.6992" gradientTransform="matrix(0.7556 -0.6551 0.6551 0.7556 -71.0587 276.6911)" gradientUnits="userSpaceOnUse">
			<stop  offset="0" style="stop-color:#CCCCD9"/>
			<stop  offset="0.1857" style="stop-color:#C3C4D4"/>
			<stop  offset="0.484" style="stop-color:#ACB0C6"/>
			<stop  offset="0.7426" style="stop-color:#9299B6"/>
		</radialGradient>
		<path class="st30" d="M109.81,92.34c-0.93-1.08-0.82-2.71,0.26-3.65c1.08-0.94,2.71-0.82,3.65,0.26c0.94,1.08,0.82,2.71-0.26,3.65
			C112.38,93.54,110.74,93.42,109.81,92.34z"/>
		
			<radialGradient id="SVGID_8_" cx="259.0362" cy="-17.1188" r="4.6992" gradientTransform="matrix(0.7556 -0.6551 0.6551 0.7556 -71.0587 276.6911)" gradientUnits="userSpaceOnUse">
			<stop  offset="0" style="stop-color:#CCCCD9"/>
			<stop  offset="0.1857" style="stop-color:#C3C4D4"/>
			<stop  offset="0.484" style="stop-color:#ACB0C6"/>
			<stop  offset="0.7426" style="stop-color:#9299B6"/>
		</radialGradient>
		<path class="st31" d="M112.48,96.6c-0.93-1.08-0.82-2.71,0.26-3.65c1.08-0.94,2.71-0.82,3.65,0.26c0.94,1.08,0.82,2.71-0.26,3.65
			C115.05,97.8,113.42,97.68,112.48,96.6z"/>
		
			<radialGradient id="SVGID_9_" cx="262.4937" cy="-9.2309" r="4.1969" gradientTransform="matrix(0.7556 -0.6551 0.6551 0.7556 -71.0587 276.6911)" gradientUnits="userSpaceOnUse">
			<stop  offset="0" style="stop-color:#CCCCD9"/>
			<stop  offset="0.1857" style="stop-color:#C3C4D4"/>
			<stop  offset="0.484" style="stop-color:#ACB0C6"/>
			<stop  offset="0.7426" style="stop-color:#9299B6"/>
		</radialGradient>
		<path class="st32" d="M120.37,100.03c-0.84-0.96-0.73-2.42,0.23-3.26c0.96-0.84,2.42-0.73,3.26,0.23
			c0.84,0.96,0.73,2.42-0.23,3.26C122.66,101.09,121.2,100.99,120.37,100.03z"/>
		
			<radialGradient id="SVGID_10_" cx="261.4138" cy="-5.0114" r="4.1973" gradientTransform="matrix(0.7556 -0.6551 0.6551 0.7556 -71.0587 276.6911)" gradientUnits="userSpaceOnUse">
			<stop  offset="0" style="stop-color:#CCCCD9"/>
			<stop  offset="0.1857" style="stop-color:#C3C4D4"/>
			<stop  offset="0.484" style="stop-color:#ACB0C6"/>
			<stop  offset="0.7426" style="stop-color:#9299B6"/>
		</radialGradient>
		<path class="st33" d="M122.31,103.92c-0.84-0.96-0.73-2.42,0.23-3.26c0.96-0.84,2.42-0.73,3.26,0.23
			c0.84,0.96,0.73,2.42-0.23,3.26C124.61,104.99,123.15,104.89,122.31,103.92z"/>
		
			<radialGradient id="SVGID_11_" cx="275.568" cy="-31.8794" r="4.197" gradientTransform="matrix(0.7556 -0.6551 0.6551 0.7556 -71.0587 276.6911)" gradientUnits="userSpaceOnUse">
			<stop  offset="0" style="stop-color:#CCCCD9"/>
			<stop  offset="0.1857" style="stop-color:#C3C4D4"/>
			<stop  offset="0.484" style="stop-color:#ACB0C6"/>
			<stop  offset="0.7426" style="stop-color:#9299B6"/>
		</radialGradient>
		<path class="st34" d="M115.41,74.35c-0.84-0.96-0.73-2.42,0.23-3.26c0.96-0.84,2.42-0.73,3.26,0.23c0.84,0.96,0.73,2.42-0.23,3.26
			C117.7,75.42,116.25,75.31,115.41,74.35z"/>
		
			<radialGradient id="SVGID_12_" cx="276.5035" cy="-27.5519" r="4.1972" gradientTransform="matrix(0.7556 -0.6551 0.6551 0.7556 -71.0587 276.6911)" gradientUnits="userSpaceOnUse">
			<stop  offset="0" style="stop-color:#CCCCD9"/>
			<stop  offset="0.1857" style="stop-color:#C3C4D4"/>
			<stop  offset="0.484" style="stop-color:#ACB0C6"/>
			<stop  offset="0.7426" style="stop-color:#9299B6"/>
		</radialGradient>
		<path class="st35" d="M118.95,77.01c-0.84-0.96-0.73-2.42,0.23-3.26c0.96-0.84,2.42-0.73,3.26,0.23c0.84,0.96,0.73,2.42-0.23,3.26
			C121.24,78.07,119.79,77.97,118.95,77.01z"/>
		
			<radialGradient id="SVGID_13_" cx="276.5077" cy="-23.0962" r="4.197" gradientTransform="matrix(0.7556 -0.6551 0.6551 0.7556 -71.0587 276.6911)" gradientUnits="userSpaceOnUse">
			<stop  offset="0" style="stop-color:#CCCCD9"/>
			<stop  offset="0.1857" style="stop-color:#C3C4D4"/>
			<stop  offset="0.484" style="stop-color:#ACB0C6"/>
			<stop  offset="0.7426" style="stop-color:#9299B6"/>
		</radialGradient>
		<path class="st36" d="M121.87,80.37c-0.84-0.96-0.73-2.42,0.23-3.26c0.96-0.84,2.42-0.73,3.26,0.23c0.84,0.96,0.73,2.42-0.23,3.26
			C124.17,81.44,122.71,81.33,121.87,80.37z"/>
		
			<radialGradient id="SVGID_14_" cx="273.8835" cy="-19.3942" r="4.1973" gradientTransform="matrix(0.7556 -0.6551 0.6551 0.7556 -71.0587 276.6911)" gradientUnits="userSpaceOnUse">
			<stop  offset="0" style="stop-color:#CCCCD9"/>
			<stop  offset="0.1857" style="stop-color:#C3C4D4"/>
			<stop  offset="0.484" style="stop-color:#ACB0C6"/>
			<stop  offset="0.7426" style="stop-color:#9299B6"/>
		</radialGradient>
		<path class="st37" d="M122.31,84.89c-0.84-0.96-0.73-2.42,0.23-3.26c0.96-0.84,2.42-0.73,3.26,0.23c0.84,0.96,0.73,2.42-0.23,3.26
			C124.61,85.95,123.15,85.85,122.31,84.89z"/>
		
			<radialGradient id="SVGID_15_" cx="270.1054" cy="-16.9279" r="4.1975" gradientTransform="matrix(0.7556 -0.6551 0.6551 0.7556 -71.0587 276.6911)" gradientUnits="userSpaceOnUse">
			<stop  offset="0" style="stop-color:#CCCCD9"/>
			<stop  offset="0.1857" style="stop-color:#C3C4D4"/>
			<stop  offset="0.484" style="stop-color:#ACB0C6"/>
			<stop  offset="0.7426" style="stop-color:#9299B6"/>
		</radialGradient>
		<path class="st38" d="M121.08,89.23c-0.84-0.96-0.73-2.42,0.23-3.26c0.96-0.84,2.42-0.73,3.26,0.23c0.83,0.96,0.73,2.42-0.23,3.26
			C123.37,90.29,121.91,90.19,121.08,89.23z"/>
		
			<radialGradient id="SVGID_16_" cx="266.1752" cy="-14.8288" r="4.1979" gradientTransform="matrix(0.7556 -0.6551 0.6551 0.7556 -71.0587 276.6911)" gradientUnits="userSpaceOnUse">
			<stop  offset="0" style="stop-color:#CCCCD9"/>
			<stop  offset="0.1857" style="stop-color:#C3C4D4"/>
			<stop  offset="0.484" style="stop-color:#ACB0C6"/>
			<stop  offset="0.7426" style="stop-color:#9299B6"/>
		</radialGradient>
		<path class="st39" d="M119.48,93.39c-0.83-0.96-0.73-2.42,0.23-3.26c0.96-0.84,2.42-0.73,3.26,0.23c0.84,0.96,0.73,2.42-0.23,3.26
			C121.78,94.45,120.32,94.35,119.48,93.39z"/>
		
			<radialGradient id="SVGID_17_" cx="261.9919" cy="-13.6519" r="4.1973" gradientTransform="matrix(0.7556 -0.6551 0.6551 0.7556 -71.0587 276.6911)" gradientUnits="userSpaceOnUse">
			<stop  offset="0" style="stop-color:#CCCCD9"/>
			<stop  offset="0.1857" style="stop-color:#C3C4D4"/>
			<stop  offset="0.484" style="stop-color:#ACB0C6"/>
			<stop  offset="0.7426" style="stop-color:#9299B6"/>
		</radialGradient>
		<path class="st40" d="M117.09,97.02c-0.84-0.96-0.73-2.42,0.23-3.26c0.96-0.84,2.42-0.73,3.26,0.23c0.83,0.96,0.73,2.42-0.23,3.26
			C119.39,98.08,117.93,97.98,117.09,97.02z"/>
		
			<radialGradient id="SVGID_18_" cx="257.4825" cy="-12.6401" r="4.1972" gradientTransform="matrix(0.7556 -0.6551 0.6551 0.7556 -71.0587 276.6911)" gradientUnits="userSpaceOnUse">
			<stop  offset="0" style="stop-color:#CCCCD9"/>
			<stop  offset="0.1857" style="stop-color:#C3C4D4"/>
			<stop  offset="0.484" style="stop-color:#ACB0C6"/>
			<stop  offset="0.7426" style="stop-color:#9299B6"/>
		</radialGradient>
		<path class="st41" d="M114.35,100.73c-0.84-0.96-0.73-2.42,0.23-3.26c0.96-0.84,2.42-0.73,3.26,0.23
			c0.84,0.96,0.73,2.42-0.23,3.26C116.64,101.8,115.18,101.7,114.35,100.73z"/>
		
			<radialGradient id="SVGID_19_" cx="253.6954" cy="-10.3001" r="4.1972" gradientTransform="matrix(0.7556 -0.6551 0.6551 0.7556 -71.0587 276.6911)" gradientUnits="userSpaceOnUse">
			<stop  offset="0" style="stop-color:#CCCCD9"/>
			<stop  offset="0.1857" style="stop-color:#C3C4D4"/>
			<stop  offset="0.484" style="stop-color:#ACB0C6"/>
			<stop  offset="0.7426" style="stop-color:#9299B6"/>
		</radialGradient>
		<path class="st42" d="M113.02,104.98c-0.84-0.96-0.73-2.42,0.23-3.26c0.96-0.84,2.42-0.73,3.26,0.23
			c0.84,0.96,0.73,2.42-0.23,3.26C115.31,106.05,113.85,105.95,113.02,104.98z"/>
		
			<radialGradient id="SVGID_20_" cx="251.2632" cy="-6.5493" r="4.1975" gradientTransform="matrix(0.7556 -0.6551 0.6551 0.7556 -71.0587 276.6911)" gradientUnits="userSpaceOnUse">
			<stop  offset="0" style="stop-color:#CCCCD9"/>
			<stop  offset="0.1857" style="stop-color:#C3C4D4"/>
			<stop  offset="0.484" style="stop-color:#ACB0C6"/>
			<stop  offset="0.7426" style="stop-color:#9299B6"/>
		</radialGradient>
		<path class="st43" d="M113.64,109.41c-0.84-0.96-0.73-2.42,0.23-3.26c0.96-0.84,2.42-0.73,3.26,0.23
			c0.84,0.96,0.73,2.42-0.23,3.26C115.93,110.48,114.47,110.38,113.64,109.41z"/>
	</g>
	<g>
		<path class="st44" d="M279.03,133.71c0,1.15-1.64,2.09-3.67,2.09c-2.02,0-3.66-0.94-3.66-2.09c0-1.15,1.64-2.09,3.66-2.09
			C277.39,131.62,279.03,132.56,279.03,133.71z"/>
		<path class="st45" d="M280.6,148.5c2.21,3.88,4.92,7.06,4.92,8.51c0,2.32-4.55,4.2-10.16,4.2c-5.61,0-10.16-1.88-10.16-4.2
			c0-1.38,2.37-4.09,4.94-8.45c1.12-1.91,2.95-0.42,5.22-0.42C277.47,148.14,279.58,146.71,280.6,148.5z"/>
		<path class="st23" d="M287.56,156.5c0,3.68-5.56,6.66-12.42,6.66c-6.86,0-12.42-2.98-12.42-6.66l8.99-12.11v-9.99
			c0,0,5.15,2.51,7.57-0.62v10.82L287.56,156.5z"/>
		<path class="st46" d="M281.02,149.59c0,1.78-2.53,3.22-5.65,3.22c-3.12,0-5.65-1.44-5.65-3.22c0-1.78,2.53-3.22,5.65-3.22
			C278.49,146.36,281.02,147.81,281.02,149.59z"/>
		<path class="st47" d="M278.43,148.45c0-0.28,0.23-0.51,0.51-0.51c0.28,0,0.51,0.23,0.51,0.51c0,0.28-0.23,0.51-0.51,0.51
			C278.66,148.96,278.43,148.73,278.43,148.45z"/>
		<path class="st47" d="M276.47,151.81c0-0.73,0.59-1.33,1.33-1.33s1.33,0.59,1.33,1.33c0,0.73-0.59,1.33-1.33,1.33
			S276.47,152.54,276.47,151.81z"/>
		<path class="st47" d="M272.35,154.21c0-0.59,0.48-1.08,1.08-1.08c0.59,0,1.08,0.48,1.08,1.08c0,0.59-0.48,1.08-1.08,1.08
			C272.84,155.29,272.35,154.8,272.35,154.21z"/>
		<path class="st47" d="M270.9,148.33c0-0.42,0.34-0.76,0.76-0.76c0.42,0,0.76,0.34,0.76,0.76c0,0.42-0.34,0.76-0.76,0.76
			C271.24,149.09,270.9,148.75,270.9,148.33z"/>
		<path class="st47" d="M274.82,143.2c0-0.42,0.34-0.76,0.76-0.76c0.42,0,0.76,0.34,0.76,0.76c0,0.42-0.34,0.76-0.76,0.76
			C275.16,143.96,274.82,143.62,274.82,143.2z"/>
		<path class="st47" d="M275.83,138.46c0-0.45,0.37-0.82,0.82-0.82c0.45,0,0.82,0.37,0.82,0.82c0,0.45-0.37,0.82-0.82,0.82
			C276.2,139.28,275.83,138.91,275.83,138.46z"/>
	</g>
	<g>
		<path class="st44" d="M245.4,73.66c0,1.15-1.64,2.09-3.67,2.09c-2.02,0-3.66-0.94-3.66-2.09c0-1.15,1.64-2.09,3.66-2.09
			C243.76,71.57,245.4,72.5,245.4,73.66z"/>
		<path class="st48" d="M246.97,95.45c2.21,3.88,4.92,17.06,4.92,18.51c0,2.32-4.55,4.2-10.16,4.2s-10.16-1.88-10.16-4.2
			c0-1.38,2.37-14.09,4.94-18.45c1.12-1.91,2.95-0.42,5.22-0.42C243.84,95.09,245.95,93.66,246.97,95.45z"/>
		<path class="st23" d="M253.93,113.45c0,3.68-5.56,6.66-12.42,6.66c-6.86,0-12.42-2.98-12.42-6.66l8.99-29.11v-9.99
			c0,0,5.15,2.51,7.57-0.62v10.82L253.93,113.45z"/>
		<path class="st49" d="M247.39,96.53c0,1.78-2.53,3.22-5.65,3.22c-3.12,0-5.65-1.44-5.65-3.22c0-1.78,2.53-3.22,5.65-3.22
			C244.86,93.31,247.39,94.75,247.39,96.53z"/>
		<path class="st47" d="M244.8,95.4c0-0.28,0.23-0.51,0.51-0.51s0.51,0.23,0.51,0.51c0,0.28-0.23,0.51-0.51,0.51
			S244.8,95.68,244.8,95.4z"/>
		<path class="st47" d="M242.84,98.75c0-0.73,0.59-1.33,1.33-1.33c0.73,0,1.33,0.59,1.33,1.33c0,0.73-0.59,1.33-1.33,1.33
			C243.43,100.08,242.84,99.49,242.84,98.75z"/>
		<circle class="st47" cx="239.8" cy="101.16" r="1.08"/>
		<path class="st47" d="M237.27,95.27c0-0.42,0.34-0.76,0.76-0.76c0.42,0,0.76,0.34,0.76,0.76c0,0.42-0.34,0.76-0.76,0.76
			C237.61,96.03,237.27,95.69,237.27,95.27z"/>
		<path class="st47" d="M241.19,83.15c0-0.42,0.34-0.76,0.76-0.76c0.42,0,0.76,0.34,0.76,0.76c0,0.42-0.34,0.76-0.76,0.76
			C241.53,83.91,241.19,83.57,241.19,83.15z"/>
		<path class="st47" d="M242.21,78.4c0-0.45,0.37-0.82,0.82-0.82c0.45,0,0.82,0.37,0.82,0.82s-0.37,0.82-0.82,0.82
			C242.58,79.22,242.21,78.86,242.21,78.4z"/>
	</g>
	<path class="st50" d="M200.68,146.7c0,0.53-0.55,0.95-1.23,0.95c-0.68,0-1.23-0.43-1.23-0.95c0-0.53,0.55-0.95,1.23-0.95
		C200.13,145.75,200.68,146.18,200.68,146.7z"/>
	<g>
		<path class="st47" d="M84.61,77.82c0-35.57,49.75-64.41,111.11-64.41c61.37,0,111.11,28.84,111.11,64.41"/>
		<path class="st47" d="M306.84,77.82c0,35.57-49.74,64.41-111.11,64.41c-61.37,0-111.11-28.84-111.11-64.41"/>
		<path class="st50" d="M119.59,118.77c0,0.53-0.55,0.95-1.23,0.95c-0.68,0-1.23-0.43-1.23-0.95c0-0.53,0.55-0.95,1.23-0.95
			C119.04,117.82,119.59,118.24,119.59,118.77z"/>
		<path class="st50" d="M172.95,136.03c0,0.53-0.55,0.95-1.23,0.95c-0.68,0-1.23-0.43-1.23-0.95c0-0.53,0.55-0.95,1.23-0.95
			C172.39,135.08,172.95,135.5,172.95,136.03z"/>
		<path class="st50" d="M234.77,133.83c0,0.53-0.55,0.95-1.23,0.95c-0.68,0-1.23-0.43-1.23-0.95c0-0.53,0.55-0.95,1.23-0.95
			C234.22,132.88,234.77,133.31,234.77,133.83z"/>
		<path class="st50" d="M257.06,137.29c0,0.53-0.55,0.95-1.23,0.95c-0.68,0-1.23-0.43-1.23-0.95c0-0.53,0.55-0.95,1.23-0.95
			C256.51,136.33,257.06,136.76,257.06,137.29z"/>
		<path class="st50" d="M287.5,109.04c0,0.53-0.55,0.95-1.23,0.95c-0.68,0-1.23-0.43-1.23-0.95c0-0.53,0.55-0.95,1.23-0.95
			C286.95,108.09,287.5,108.51,287.5,109.04z"/>
		<path class="st50" d="M282.91,125.58c0,0.53-0.55,0.95-1.23,0.95c-0.68,0-1.23-0.43-1.23-0.95c0-0.53,0.55-0.95,1.23-0.95
			C282.36,124.63,282.91,125.05,282.91,125.58z"/>
		<path class="st50" d="M301.31,87.38c0,0.53-0.55,0.95-1.23,0.95c-0.68,0-1.23-0.43-1.23-0.95c0-0.53,0.55-0.95,1.23-0.95
			C300.76,86.43,301.31,86.86,301.31,87.38z"/>
		<path class="st50" d="M311.67,72.95c0,0.53-0.55,0.95-1.23,0.95c-0.68,0-1.23-0.43-1.23-0.95c0-0.53,0.55-0.95,1.23-0.95
			C311.12,71.99,311.67,72.42,311.67,72.95z"/>
		<path class="st50" d="M303.19,105.59c0,0.53-0.55,0.95-1.23,0.95c-0.68,0-1.23-0.43-1.23-0.95c0-0.53,0.55-0.95,1.23-0.95
			C302.64,104.63,303.19,105.06,303.19,105.59z"/>
		<path class="st50" d="M95.88,113.02c0,0.53-0.55,0.95-1.23,0.95c-0.68,0-1.23-0.43-1.23-0.95c0-0.53,0.55-0.95,1.23-0.95
			C95.33,112.07,95.88,112.49,95.88,113.02z"/>
		<path class="st50" d="M94.8,90.38c0,0.53-0.55,0.95-1.23,0.95c-0.68,0-1.23-0.43-1.23-0.95c0-0.53,0.55-0.95,1.23-0.95
			C94.25,89.43,94.8,89.86,94.8,90.38z"/>
		<path class="st50" d="M81.14,70.26c0,0.53-0.55,0.95-1.23,0.95s-1.23-0.43-1.23-0.95c0-0.53,0.55-0.95,1.23-0.95
			S81.14,69.74,81.14,70.26z"/>
		<path class="st50" d="M96.96,55.53c0,0.53-0.55,0.95-1.23,0.95c-0.68,0-1.23-0.43-1.23-0.95c0-0.53,0.55-0.95,1.23-0.95
			C96.4,54.58,96.96,55,96.96,55.53z"/>
		<path class="st50" d="M104.14,36.13c0,0.53-0.55,0.95-1.23,0.95s-1.23-0.43-1.23-0.95c0-0.53,0.55-0.95,1.23-0.95
			S104.14,35.6,104.14,36.13z"/>
		<path class="st50" d="M124.98,32.89c0,0.53-0.55,0.95-1.23,0.95c-0.68,0-1.23-0.43-1.23-0.95c0-0.53,0.55-0.95,1.23-0.95
			C124.43,31.94,124.98,32.37,124.98,32.89z"/>
		<path class="st50" d="M142.23,17.8c0,0.53-0.55,0.95-1.23,0.95c-0.68,0-1.23-0.43-1.23-0.95c0-0.53,0.55-0.95,1.23-0.95
			C141.68,16.85,142.23,17.28,142.23,17.8z"/>
		<path class="st50" d="M163.79,19.24c0,0.53-0.55,0.95-1.23,0.95s-1.23-0.43-1.23-0.95c0-0.53,0.55-0.95,1.23-0.95
			S163.79,18.71,163.79,19.24z"/>
		<path class="st50" d="M189.84,10.45c0,0.53-0.55,0.95-1.23,0.95c-0.68,0-1.23-0.43-1.23-0.95c0-0.53,0.55-0.95,1.23-0.95
			C189.28,9.5,189.84,9.92,189.84,10.45z"/>
		<path class="st50" d="M212.43,16.42c0,0.53-0.55,0.95-1.23,0.95c-0.68,0-1.23-0.43-1.23-0.95c0-0.53,0.55-0.95,1.23-0.95
			C211.88,15.46,212.43,15.89,212.43,16.42z"/>
		<path class="st50" d="M242.25,15.16c0,0.53-0.55,0.95-1.23,0.95c-0.68,0-1.23-0.43-1.23-0.95c0-0.53,0.55-0.95,1.23-0.95
			C241.7,14.21,242.25,14.63,242.25,15.16z"/>
		<path class="st50" d="M262.02,29.91c0,0.53-0.55,0.95-1.23,0.95c-0.68,0-1.23-0.43-1.23-0.95c0-0.53,0.55-0.95,1.23-0.95
			C261.47,28.96,262.02,29.38,262.02,29.91z"/>
		<path class="st50" d="M289.33,36.5c0,0.53-0.55,0.95-1.23,0.95c-0.68,0-1.23-0.43-1.23-0.95c0-0.53,0.55-0.95,1.23-0.95
			C288.78,35.55,289.33,35.98,289.33,36.5z"/>
		<path class="st50" d="M295.6,55.96c0,0.53-0.55,0.95-1.23,0.95c-0.68,0-1.23-0.43-1.23-0.95c0-0.53,0.55-0.95,1.23-0.95
			C295.05,55.01,295.6,55.43,295.6,55.96z"/>
	</g>
	<g>
		<path class="st51" d="M307.55,199.45c0,0,7.66,1.59,9.57,15.95l4.47,26.48l21.7-13.4c0,0,5.74,4.15,5.74,8.93l-25.52,20.42
			c0,0-12.44,7.02-16.59-9.25L307.55,199.45z"/>
		<polygon class="st52" points="321.59,241.88 316.87,246.96 319.76,240.77 319.04,227.96 		"/>
		<g>
			<g>
				<path class="st53" d="M345.14,226.99c-2.43,1.47-2.93,5.53-1.64,7.63l0,0c1.28,2.09,4.3,2.6,6.74,1.14l3.87-2.32
					c3.56-1.5,1.74-4.95,0.45-7.05l0,0c-1.29-2.09-3.11-3.18-5.55-1.72L345.14,226.99z"/>
				<path class="st53" d="M344.09,227.37c-0.18,0.8,0.26,1.55,0.99,1.67l0,0c0.73,0.12,1.46-0.44,1.64-1.24l1.14-5.07
					c0.18-0.8-0.26-1.55-0.99-1.66l0,0c-0.73-0.11-1.46,0.44-1.64,1.24L344.09,227.37z"/>
				<path class="st53" d="M351.65,225.8c-0.47,0.47-1.23,0.5-1.7,0.07l0,0c-0.47-0.43-0.46-1.17,0.02-1.64l5.54-5.51
					c0.48-0.47,1.24-0.5,1.7-0.07l0,0c0.46,0.43,0.46,1.16-0.02,1.64L351.65,225.8z"/>
				<path class="st53" d="M354.37,227.61c-0.54,0.4-1.29,0.33-1.68-0.17l0,0c-0.39-0.5-0.27-1.23,0.27-1.63l6.29-4.7
					c0.54-0.4,1.29-0.32,1.68,0.17l0,0c0.39,0.5,0.27,1.23-0.27,1.63L354.37,227.61z"/>
				<path class="st53" d="M353.71,230.96c-0.59,0.32-1.32,0.13-1.62-0.42l0,0c-0.31-0.55-0.07-1.26,0.52-1.58l6.92-3.75
					c0.59-0.32,1.31-0.13,1.62,0.42l0,0c0.3,0.55,0.07,1.26-0.52,1.58L353.71,230.96z"/>
				<path class="st53" d="M353.61,233.64c-0.51,0.28-1.09,0.2-1.29-0.17l0,0c-0.2-0.37,0.04-0.9,0.56-1.18l5.95-3.23
					c0.51-0.28,1.09-0.2,1.29,0.18l0,0c0.21,0.38-0.04,0.9-0.55,1.18L353.61,233.64z"/>
			</g>
		</g>
		<path class="st54" d="M326.67,229.47c4.64-6.65,13.5-8.49,19.79-4.1c6.29,4.39,7.62,13.34,2.98,19.99
			c-4.64,6.65-13.5,8.49-19.79,4.1C323.37,245.07,322.03,236.12,326.67,229.47z"/>
		<polygon class="st55" points="295.44,291.1 284.51,297.39 284.51,284.47 298.42,279.18 		"/>
		<path class="st56" d="M300.23,184.09c0,0,0.13,6.16-0.13,7.03s-1.44-7.06-1.44-7.06L300.23,184.09z"/>
		<path class="st57" d="M301.71,384.69l-0.87,10.26c0,0-6.22,4.26-9.03-0.35l0.21-12.87C292.03,381.73,301.45,381.37,301.71,384.69z
			"/>
		<path class="st55" d="M307.64,333.06c0,0-2.75,32.15-4.07,51.34c0,0-9.38,6.43-13.56-0.7l3.6-53.63l-0.04-49.01l17.49-7.75
			L307.64,333.06z"/>
		<path class="st58" d="M290.95,398.57l0.28,3.41c0,0-0.29,0.42,7.15,1.02c0,0,11.84,7.66,16.01,3.16c0,0,2.93-2.11-0.44-5.81
			l-9.26-2.26L290.95,398.57z"/>
		<path class="st13" d="M291.21,392.69c0,0-0.67,5.98-0.03,6.98c0,0,3.36,0.69,5.06,0.67c0,0,3.58,0.34,9.84,4.22
			c0,0,5.52,2.99,8.22-0.22c0,0,1.99-3.12-2.53-6.05c0,0-7.55-4.2-8.37-7.14c0,0-3.19-1.76-6.19-0.26l-0.2,1.67
			C297.02,392.57,292.08,393.1,291.21,392.69z"/>
		<path class="st57" d="M280.52,394.29l-1.07,10.46c0,0-6.22,4.26-9.03-0.35l0.41-13.07C270.83,391.33,280.25,390.97,280.52,394.29z
			"/>
		<path class="st55" d="M286.45,342.67c0,0-2.75,32.15-4.07,51.34c0,0-9.38,6.43-13.56-0.7l3.6-53.63l-0.04-49l17.49-7.75
			L286.45,342.67z"/>
		<path class="st58" d="M269.55,408.37l0.28,3.41c0,0-0.29,0.42,7.15,1.02c0,0,11.84,7.66,16.01,3.16c0,0,2.93-2.11-0.44-5.81
			l-9.26-2.26L269.55,408.37z"/>
		<path class="st13" d="M269.82,402.49c0,0-0.67,5.98-0.03,6.98c0,0,3.36,0.69,5.06,0.67c0,0,3.58,0.34,9.84,4.22
			c0,0,5.52,2.99,8.22-0.22c0,0,1.99-3.12-2.53-6.05c0,0-7.55-4.2-8.37-7.14c0,0-3.19-1.76-6.19-0.26l-0.2,1.67
			C275.63,402.37,270.69,402.91,269.82,402.49z"/>
		<path class="st12" d="M306.4,263.32c1.74-11.22,4.02-24.76,5.17-27.06c0,0,5.48-27.96-0.86-33.15c0,0-5.76-12.4-29.12,2.59
			l-18.16,11.53c0,0-4.32,10.95-0.29,27.39"/>
		<path class="st59" d="M313.14,226.81l-2.84,13.52c0,0-8.92,6.89-29.47,9.87c0,0,17.03-3.65,29.6-13.38
			C310.44,236.81,312.74,219.92,313.14,226.81z"/>
		<path class="st60" d="M292.67,271.27l1.44-52.84l-1.13-1.45l0.56-2.42c0.84-1.7,2.25,1.7,2.25,1.7v1.94l5.06,48.03
			c-0.23,0.25-3.16,8.13-3.16,8.13L292.67,271.27z"/>
		<path class="st21" d="M254.92,228.54c-0.14-6.48,8.5-11.29,8.5-11.29s17.92-12,18.97-12.17l8.19,62.37l-1.02,67.77
			c0,0-14.61,8.34-24.91,2.24l-0.38-86.87L254.92,228.54z"/>
		<path class="st21" d="M301.01,330.08l-3.63-120.31l-2.44-8.36l4.88-2.79c16.72-3.66,14.46,21.25,14.46,21.25l-1.94,40.42
			l2.27,56.45C314.6,316.74,304.69,329.57,301.01,330.08z"/>
		<polygon class="st20" points="295.24,200.41 297.46,210.6 299.99,267.08 301.9,210.99 299.16,210.34 301.25,206.16 		"/>
		<path class="st20" d="M280.4,243.12c0,0,3.2,12.48-3.46,13.13c0,0-4.55,1.7-5.53-9.35C271.41,246.91,279.85,243.55,280.4,243.12z"
			/>
		<polygon class="st20" points="281.39,205.5 279.26,220.4 284.14,221.57 279.56,225.49 287.87,257.29 289.21,257.12 284.62,219.83 
			282.05,204.37 		"/>
		<path class="st61" d="M314.37,210.96c0,0,0.5,14.67-1,31l-0.67,9.83l0.17-10.17L314.37,210.96z"/>
		<g>
			<g>
				<polyline class="st23" points="332.31,184.36 345.43,181.77 355.66,190.14 353.07,201.79 340.62,204.43 332.41,206.53 
					324.98,196.51 340.54,203.25 338.49,193.11 344.31,183.37 				"/>
				<polyline class="st23" points="331.53,184.72 326.29,195.85 340.39,193.5 333.66,185.55 				"/>
				<line class="st23" x1="355.66" y1="190.14" x2="339.65" y2="193.36"/>
				<line class="st23" x1="339.99" y1="193.22" x2="352.4" y2="201.74"/>
			</g>
			
				<radialGradient id="SVGID_21_" cx="364.9862" cy="192.7048" r="6.4552" gradientTransform="matrix(0.7556 -0.6551 0.6551 0.7556 -71.0587 276.6911)" gradientUnits="userSpaceOnUse">
				<stop  offset="0" style="stop-color:#CCCCD9"/>
				<stop  offset="0.1857" style="stop-color:#C3C4D4"/>
				<stop  offset="0.484" style="stop-color:#ACB0C6"/>
				<stop  offset="0.7426" style="stop-color:#9299B6"/>
			</radialGradient>
			<path class="st62" d="M329.63,186.69c-1.29-1.48-1.13-3.73,0.36-5.01c1.48-1.29,3.73-1.13,5.01,0.36
				c1.28,1.48,1.13,3.73-0.36,5.01C333.16,188.33,330.92,188.17,329.63,186.69z"/>
			
				<radialGradient id="SVGID_22_" cx="376.1686" cy="199.688" r="5.1642" gradientTransform="matrix(0.7556 -0.6551 0.6551 0.7556 -71.0587 276.6911)" gradientUnits="userSpaceOnUse">
				<stop  offset="0" style="stop-color:#CCCCD9"/>
				<stop  offset="0.1857" style="stop-color:#C3C4D4"/>
				<stop  offset="0.484" style="stop-color:#ACB0C6"/>
				<stop  offset="0.7426" style="stop-color:#9299B6"/>
			</radialGradient>
			<path class="st63" d="M342.92,183.94c-1.03-1.19-0.9-2.98,0.28-4.01c1.19-1.03,2.98-0.9,4.01,0.29c1.03,1.19,0.9,2.98-0.29,4.01
				C345.74,185.25,343.95,185.13,342.92,183.94z"/>
			
				<radialGradient id="SVGID_23_" cx="352.3669" cy="197.9123" r="5.1638" gradientTransform="matrix(0.7556 -0.6551 0.6551 0.7556 -71.0587 276.6911)" gradientUnits="userSpaceOnUse">
				<stop  offset="0" style="stop-color:#CCCCD9"/>
				<stop  offset="0.1857" style="stop-color:#C3C4D4"/>
				<stop  offset="0.484" style="stop-color:#ACB0C6"/>
				<stop  offset="0.7426" style="stop-color:#9299B6"/>
			</radialGradient>
			<path class="st64" d="M323.77,198.19c-1.03-1.19-0.9-2.98,0.29-4.01c1.19-1.03,2.98-0.9,4.01,0.29c1.03,1.19,0.9,2.98-0.29,4.01
				C326.6,199.51,324.8,199.38,323.77,198.19z"/>
			
				<radialGradient id="SVGID_24_" cx="378.5365" cy="213.4241" r="5.1634" gradientTransform="matrix(0.7556 -0.6551 0.6551 0.7556 -71.0587 276.6911)" gradientUnits="userSpaceOnUse">
				<stop  offset="0" style="stop-color:#CCCCD9"/>
				<stop  offset="0.1857" style="stop-color:#C3C4D4"/>
				<stop  offset="0.484" style="stop-color:#ACB0C6"/>
				<stop  offset="0.7426" style="stop-color:#9299B6"/>
			</radialGradient>
			<path class="st65" d="M353.71,192.77c-1.03-1.19-0.9-2.98,0.29-4.01c1.19-1.03,2.98-0.9,4.01,0.29c1.03,1.19,0.9,2.98-0.29,4.01
				C356.53,194.08,354.74,193.95,353.71,192.77z"/>
			
				<radialGradient id="SVGID_25_" cx="358.643" cy="213.5429" r="5.164" gradientTransform="matrix(0.7556 -0.6551 0.6551 0.7556 -71.0587 276.6911)" gradientUnits="userSpaceOnUse">
				<stop  offset="0" style="stop-color:#CCCCD9"/>
				<stop  offset="0.1857" style="stop-color:#C3C4D4"/>
				<stop  offset="0.484" style="stop-color:#ACB0C6"/>
				<stop  offset="0.7426" style="stop-color:#9299B6"/>
			</radialGradient>
			<path class="st66" d="M338.76,205.89c-1.03-1.19-0.9-2.98,0.29-4.01c1.19-1.03,2.98-0.9,4.01,0.29c1.03,1.19,0.9,2.98-0.29,4.01
				C341.58,207.2,339.78,207.08,338.76,205.89z"/>
			
				<radialGradient id="SVGID_26_" cx="351.1326" cy="210.4606" r="3.4423" gradientTransform="matrix(0.7556 -0.6551 0.6551 0.7556 -71.0587 276.6911)" gradientUnits="userSpaceOnUse">
				<stop  offset="0" style="stop-color:#CCCCD9"/>
				<stop  offset="0.1857" style="stop-color:#C3C4D4"/>
				<stop  offset="0.484" style="stop-color:#ACB0C6"/>
				<stop  offset="0.7426" style="stop-color:#9299B6"/>
			</radialGradient>
			<path class="st67" d="M331.42,207.55c-0.69-0.79-0.6-1.99,0.19-2.67c0.79-0.69,1.99-0.6,2.67,0.19c0.69,0.79,0.6,1.99-0.19,2.67
				C333.3,208.43,332.1,208.34,331.42,207.55z"/>
			
				<radialGradient id="SVGID_27_" cx="369.0134" cy="219.9332" r="3.4422" gradientTransform="matrix(0.7556 -0.6551 0.6551 0.7556 -71.0587 276.6911)" gradientUnits="userSpaceOnUse">
				<stop  offset="0" style="stop-color:#CCCCD9"/>
				<stop  offset="0.1857" style="stop-color:#C3C4D4"/>
				<stop  offset="0.484" style="stop-color:#ACB0C6"/>
				<stop  offset="0.7426" style="stop-color:#9299B6"/>
			</radialGradient>
			<path class="st68" d="M351.13,202.99c-0.69-0.79-0.6-1.99,0.19-2.67c0.79-0.69,1.99-0.6,2.67,0.19c0.69,0.79,0.6,1.99-0.19,2.67
				C353.02,203.87,351.82,203.79,351.13,202.99z"/>
			
				<radialGradient id="SVGID_28_" cx="388.6806" cy="206.493" r="1.6962" gradientTransform="matrix(0.7556 -0.6551 0.6551 0.7556 -71.0587 276.6911)" gradientUnits="userSpaceOnUse">
				<stop  offset="0" style="stop-color:#CCCCD9"/>
				<stop  offset="0.1857" style="stop-color:#C3C4D4"/>
				<stop  offset="0.484" style="stop-color:#ACB0C6"/>
				<stop  offset="0.7426" style="stop-color:#9299B6"/>
			</radialGradient>
			<path class="st69" d="M357.55,179.01c-0.34-0.39-0.3-0.98,0.09-1.32c0.39-0.34,0.98-0.3,1.32,0.09c0.34,0.39,0.3,0.98-0.09,1.32
				C358.48,179.44,357.89,179.4,357.55,179.01z"/>
			
				<radialGradient id="SVGID_29_" cx="367.4299" cy="229.0958" r="1.6962" gradientTransform="matrix(0.7556 -0.6551 0.6551 0.7556 -71.0587 276.6911)" gradientUnits="userSpaceOnUse">
				<stop  offset="0" style="stop-color:#CCCCD9"/>
				<stop  offset="0.1857" style="stop-color:#C3C4D4"/>
				<stop  offset="0.484" style="stop-color:#ACB0C6"/>
				<stop  offset="0.7426" style="stop-color:#9299B6"/>
			</radialGradient>
			<path class="st70" d="M356.3,210.01c-0.34-0.39-0.3-0.98,0.09-1.32c0.39-0.34,0.98-0.3,1.32,0.09c0.34,0.39,0.3,0.98-0.09,1.32
				C357.23,210.44,356.64,210.4,356.3,210.01z"/>
			
				<radialGradient id="SVGID_30_" cx="385.8795" cy="224.2032" r="1.6962" gradientTransform="matrix(0.7556 -0.6551 0.6551 0.7556 -71.0587 276.6911)" gradientUnits="userSpaceOnUse">
				<stop  offset="0" style="stop-color:#CCCCD9"/>
				<stop  offset="0.1857" style="stop-color:#C3C4D4"/>
				<stop  offset="0.484" style="stop-color:#ACB0C6"/>
				<stop  offset="0.7426" style="stop-color:#9299B6"/>
			</radialGradient>
			<path class="st71" d="M367.04,194.23c-0.34-0.39-0.3-0.98,0.09-1.32c0.39-0.34,0.98-0.3,1.32,0.09c0.34,0.39,0.3,0.98-0.09,1.32
				C367.96,194.66,367.37,194.62,367.04,194.23z"/>
			
				<radialGradient id="SVGID_31_" cx="391.0698" cy="223.0001" r="1.6968" gradientTransform="matrix(0.7556 -0.6551 0.6551 0.7556 -71.0587 276.6911)" gradientUnits="userSpaceOnUse">
				<stop  offset="0" style="stop-color:#CCCCD9"/>
				<stop  offset="0.1857" style="stop-color:#C3C4D4"/>
				<stop  offset="0.484" style="stop-color:#ACB0C6"/>
				<stop  offset="0.7426" style="stop-color:#9299B6"/>
			</radialGradient>
			<path class="st72" d="M370.17,189.92c-0.34-0.39-0.3-0.98,0.09-1.32c0.39-0.34,0.98-0.3,1.32,0.09c0.34,0.39,0.3,0.98-0.09,1.32
				C371.1,190.35,370.51,190.31,370.17,189.92z"/>
			
				<radialGradient id="SVGID_32_" cx="301.0955" cy="206.4472" r="1.6962" gradientTransform="matrix(0.8439 0.5365 -0.5365 0.8439 199.1515 -124.6104)" gradientUnits="userSpaceOnUse">
				<stop  offset="0" style="stop-color:#CCCCD9"/>
				<stop  offset="0.1857" style="stop-color:#C3C4D4"/>
				<stop  offset="0.484" style="stop-color:#ACB0C6"/>
				<stop  offset="0.7426" style="stop-color:#9299B6"/>
			</radialGradient>
			<path class="st73" d="M341.51,211.07c0.28-0.43,0.85-0.56,1.29-0.29c0.44,0.28,0.56,0.85,0.29,1.29
				c-0.28,0.44-0.85,0.56-1.29,0.29C341.36,212.09,341.23,211.51,341.51,211.07z"/>
			
				<radialGradient id="SVGID_33_" cx="306.2866" cy="205.2438" r="1.6963" gradientTransform="matrix(0.8439 0.5365 -0.5365 0.8439 199.1515 -124.6104)" gradientUnits="userSpaceOnUse">
				<stop  offset="0" style="stop-color:#CCCCD9"/>
				<stop  offset="0.1857" style="stop-color:#C3C4D4"/>
				<stop  offset="0.484" style="stop-color:#ACB0C6"/>
				<stop  offset="0.7426" style="stop-color:#9299B6"/>
			</radialGradient>
			<path class="st74" d="M346.53,212.84c0.28-0.44,0.85-0.56,1.29-0.29c0.44,0.28,0.56,0.85,0.29,1.29
				c-0.28,0.44-0.85,0.56-1.29,0.29C346.38,213.86,346.26,213.28,346.53,212.84z"/>
			
				<radialGradient id="SVGID_34_" cx="372.406" cy="187.1155" r="1.6969" gradientTransform="matrix(0.7556 -0.6551 0.6551 0.7556 -71.0587 276.6911)" gradientUnits="userSpaceOnUse">
				<stop  offset="0" style="stop-color:#CCCCD9"/>
				<stop  offset="0.1857" style="stop-color:#C3C4D4"/>
				<stop  offset="0.484" style="stop-color:#ACB0C6"/>
				<stop  offset="0.7426" style="stop-color:#9299B6"/>
			</radialGradient>
			<path class="st75" d="M332.56,175.03c-0.34-0.39-0.3-0.98,0.09-1.32c0.39-0.34,0.98-0.29,1.32,0.09c0.34,0.39,0.3,0.98-0.09,1.32
				C333.49,175.46,332.9,175.42,332.56,175.03z"/>
			
				<radialGradient id="SVGID_35_" cx="385.8682" cy="187.4358" r="1.6968" gradientTransform="matrix(0.7556 -0.6551 0.6551 0.7556 -71.0587 276.6911)" gradientUnits="userSpaceOnUse">
				<stop  offset="0" style="stop-color:#CCCCD9"/>
				<stop  offset="0.1857" style="stop-color:#C3C4D4"/>
				<stop  offset="0.484" style="stop-color:#ACB0C6"/>
				<stop  offset="0.7426" style="stop-color:#9299B6"/>
			</radialGradient>
			<path class="st76" d="M342.94,166.45c-0.34-0.39-0.3-0.98,0.09-1.32c0.39-0.34,0.98-0.3,1.32,0.09c0.34,0.39,0.3,0.98-0.09,1.32
				C343.87,166.88,343.28,166.84,342.94,166.45z"/>
			
				<radialGradient id="SVGID_36_" cx="359.2918" cy="184.3011" r="1.6962" gradientTransform="matrix(0.7556 -0.6551 0.6551 0.7556 -71.0587 276.6911)" gradientUnits="userSpaceOnUse">
				<stop  offset="0" style="stop-color:#CCCCD9"/>
				<stop  offset="0.1857" style="stop-color:#C3C4D4"/>
				<stop  offset="0.484" style="stop-color:#ACB0C6"/>
				<stop  offset="0.7426" style="stop-color:#9299B6"/>
			</radialGradient>
			<path class="st77" d="M320.81,181.49c-0.34-0.39-0.3-0.98,0.09-1.32c0.39-0.34,0.98-0.3,1.32,0.09c0.34,0.39,0.3,0.98-0.09,1.32
				C321.73,181.93,321.14,181.88,320.81,181.49z"/>
			
				<radialGradient id="SVGID_37_" cx="346.1164" cy="188.4337" r="1.6962" gradientTransform="matrix(0.7556 -0.6551 0.6551 0.7556 -71.0587 276.6911)" gradientUnits="userSpaceOnUse">
				<stop  offset="0" style="stop-color:#CCCCD9"/>
				<stop  offset="0.1857" style="stop-color:#C3C4D4"/>
				<stop  offset="0.484" style="stop-color:#ACB0C6"/>
				<stop  offset="0.7426" style="stop-color:#9299B6"/>
			</radialGradient>
			<path class="st78" d="M313.56,193.25c-0.34-0.39-0.3-0.98,0.09-1.32c0.39-0.34,0.98-0.3,1.32,0.09c0.34,0.39,0.3,0.98-0.09,1.32
				C314.49,193.68,313.9,193.64,313.56,193.25z"/>
			
				<radialGradient id="SVGID_38_" cx="346.2618" cy="204.1135" r="1.6968" gradientTransform="matrix(0.7556 -0.6551 0.6551 0.7556 -71.0587 276.6911)" gradientUnits="userSpaceOnUse">
				<stop  offset="0" style="stop-color:#CCCCD9"/>
				<stop  offset="0.1857" style="stop-color:#C3C4D4"/>
				<stop  offset="0.484" style="stop-color:#ACB0C6"/>
				<stop  offset="0.7426" style="stop-color:#9299B6"/>
			</radialGradient>
			<path class="st79" d="M323.94,205c-0.34-0.39-0.3-0.98,0.09-1.32c0.39-0.34,0.98-0.29,1.32,0.09c0.34,0.39,0.3,0.98-0.09,1.32
				C324.87,205.43,324.28,205.39,323.94,205z"/>
			
				<radialGradient id="SVGID_39_" cx="364.9853" cy="204.191" r="6.4541" gradientTransform="matrix(0.7556 -0.6551 0.6551 0.7556 -71.0587 276.6911)" gradientUnits="userSpaceOnUse">
				<stop  offset="0" style="stop-color:#CCCCD9"/>
				<stop  offset="0.1857" style="stop-color:#C3C4D4"/>
				<stop  offset="0.484" style="stop-color:#ACB0C6"/>
				<stop  offset="0.7426" style="stop-color:#9299B6"/>
			</radialGradient>
			<path class="st80" d="M337.15,195.37c-1.29-1.48-1.13-3.73,0.36-5.01c1.48-1.29,3.73-1.13,5.01,0.36
				c1.29,1.48,1.13,3.72-0.36,5.01C340.68,197.01,338.44,196.85,337.15,195.37z"/>
		</g>
		<path class="st20" d="M283.51,284.28c0,0-3.45,11.38-11.38,15.03v-1.22c0,0,5.98-2.39,10.56-14.22L283.51,284.28z"/>
		<path class="st20" d="M311.25,288.29c-1.69-2.04-3.59-5.05-5.3-9.45l-0.77,0.38c0,0,1.83,6.03,5.89,10.5"/>
		<path class="st81" d="M290.38,408.09c0,0-6.72-0.1-5.09,6.28c0,0,4.13,3.13,7.88-0.38C293.16,414,295.1,411.69,290.38,408.09z"/>
		<path class="st81" d="M311.76,398.09c0,0-6.72-0.1-5.09,6.28c0,0,4.13,3.13,7.88-0.38C314.54,404,316.47,401.69,311.76,398.09z"/>
		
			<radialGradient id="SVGID_40_" cx="363.4751" cy="191.3947" r="6.4552" gradientTransform="matrix(0.7556 -0.6551 0.6551 0.7556 -71.0587 276.6911)" gradientUnits="userSpaceOnUse">
			<stop  offset="0" style="stop-color:#CCCCD9"/>
			<stop  offset="0.1857" style="stop-color:#C3C4D4"/>
			<stop  offset="0.484" style="stop-color:#ACB0C6"/>
			<stop  offset="0.7426" style="stop-color:#9299B6"/>
		</radialGradient>
		<path class="st82" d="M327.63,186.69c-1.29-1.48-1.13-3.73,0.36-5.01c1.48-1.29,3.73-1.13,5.01,0.36
			c1.28,1.48,1.13,3.73-0.36,5.01C331.16,188.33,328.92,188.17,327.63,186.69z"/>
		
			<radialGradient id="SVGID_41_" cx="363.4751" cy="191.3947" r="6.4552" gradientTransform="matrix(0.7556 -0.6551 0.6551 0.7556 -71.0587 276.6911)" gradientUnits="userSpaceOnUse">
			<stop  offset="0" style="stop-color:#CCCCD9"/>
			<stop  offset="0.1857" style="stop-color:#C3C4D4"/>
			<stop  offset="0.484" style="stop-color:#ACB0C6"/>
			<stop  offset="0.7426" style="stop-color:#9299B6"/>
		</radialGradient>
		<path class="st83" d="M327.63,186.69c-1.29-1.48-1.13-3.73,0.36-5.01c1.48-1.29,3.73-1.13,5.01,0.36
			c1.28,1.48,1.13,3.73-0.36,5.01C331.16,188.33,328.92,188.17,327.63,186.69z"/>
		<g>
			<path class="st1" d="M317.06,250.8c-2.73,0.79-4.25,4.6-3.54,6.95l0,0c0.71,2.35,3.49,3.62,6.22,2.82l4.33-1.25
				c3.82-0.54,2.95-4.34,2.24-6.7l0,0c-0.71-2.35-2.19-3.87-4.93-3.08L317.06,250.8z"/>
			<path class="st1" d="M315.95,250.91c-0.38,0.73-0.14,1.57,0.53,1.86l0,0c0.67,0.3,1.52-0.05,1.9-0.78l2.4-4.61
				c0.38-0.73,0.14-1.56-0.53-1.86l0,0c-0.67-0.3-1.53,0.05-1.91,0.78L315.95,250.91z"/>
			<path class="st1" d="M323.66,251.32c-0.58,0.34-1.32,0.17-1.66-0.37l0,0c-0.34-0.54-0.14-1.24,0.43-1.58l6.77-3.91
				c0.58-0.34,1.33-0.17,1.66,0.37l0,0c0.34,0.54,0.15,1.24-0.43,1.58L323.66,251.32z"/>
			<path class="st1" d="M325.83,253.76c-0.62,0.25-1.33-0.01-1.58-0.6l0,0c-0.25-0.58,0.05-1.26,0.68-1.5l7.28-2.94
				c0.62-0.25,1.33,0.02,1.58,0.6l0,0c0.25,0.58-0.05,1.26-0.68,1.51L325.83,253.76z"/>
			<path class="st1" d="M324.33,256.83c-0.65,0.16-1.31-0.21-1.46-0.82l0,0c-0.15-0.61,0.26-1.24,0.91-1.4l7.65-1.86
				c0.65-0.16,1.3,0.21,1.46,0.82l0,0c0.15,0.61-0.25,1.24-0.91,1.4L324.33,256.83z"/>
			<path class="st1" d="M323.55,259.4c-0.56,0.14-1.1-0.09-1.2-0.5l0,0c-0.1-0.41,0.27-0.86,0.84-1l6.58-1.6
				c0.57-0.14,1.1,0.09,1.2,0.5l0,0c0.1,0.42-0.27,0.86-0.83,1L323.55,259.4z"/>
		</g>
		<path class="st21" d="M261.32,218.77c0,0-5.68,2.32-6.32,8.06c0,0-2.28,33.5,0.6,45.3c0,0,4.19,6.38,9.93,5.42l52.32-15
			c0,0-0.32-9.89-3.51-12.12l-43.71,9.89l-2.23-35.41"/>
		<polygon class="st61" points="269.54,262.08 312.7,250.75 270.04,260.75 268.37,239.42 267.71,262.42 265.87,268.25 		"/>
		<path class="st61" d="M264.7,277.66c0.67,0,48-14,48-14v0.83l-22.33,6.67l-25.96,11.24L264.7,277.66z"/>
		<path class="st61" d="M301.04,198.79c0,0-14,0.5-42,21.67c0,0,9,1.33,8.67,14.17c0,0,1.5-11.67-4.5-14.5
			C263.21,220.12,275.87,205.46,301.04,198.79z"/>
		<polygon class="st1" points="281.96,198.73 282.24,210.21 294.41,214.13 296.99,209.93 296.17,202.83 		"/>
		<g>
			<path class="st19" d="M296.99,209.93c-0.26,0.07-11.34-0.83-14.86-10.11l5.95,0.27l8.09,2.73L296.99,209.93z"/>
			<g>
				<path class="st1" d="M297.26,181.66c0.8,0.54,2.02,2.71,2.32,5.82c0,0,4.79,15.19-0.91,18.33c0,0-6.57,4.55-15.49-4.63
					l-2.95-9.2C280.23,191.98,285.27,173.53,297.26,181.66z"/>
				<path class="st84" d="M275.1,186.87c0.53,5.18,2.75,12.69,8.76,14.1c0.18-3.42,1.42-6.91,1.3-9.1
					c-0.24-4.61-1.54-2.86-6.01-4.43"/>
				<path class="st1" d="M284.16,197.56c0,0-0.73-4.08-3.28-3.28c0,0-3.54,1.39,1.21,6.25c0,0,0.43,1.21,2.73,0.79"/>
				<path class="st85" d="M299.08,191.95c0.04,0.44-0.17,0.83-0.48,0.86c-0.31,0.03-0.6-0.3-0.65-0.75
					c-0.04-0.45,0.17-0.83,0.48-0.87C298.74,191.16,299.03,191.5,299.08,191.95z"/>
				<path class="st85" d="M293.25,195.46c0.04,0.45-0.17,0.84-0.48,0.87c-0.31,0.03-0.6-0.3-0.65-0.75
					c-0.05-0.44,0.17-0.83,0.48-0.86C292.92,194.68,293.21,195.01,293.25,195.46z"/>
				<path class="st19" d="M296.01,193.21l3.76,3.56c0,0-0.36,1.8-2.53,1.89L296.01,193.21z"/>
				<path class="st86" d="M299.94,198.45c0,0-1.79,2.76-4.56,1.89C295.38,200.34,298.86,203.86,299.94,198.45z"/>
			</g>
		</g>
		<path class="st85" d="M292.73,182.94c-1.79-2.23-4.3,3.35-4.44,4.77c-0.14,1.41,0.14,3.2-0.62,4.44
			c-0.71,1.16-2.43,1.79-3.63,2.14c-3.3,0.95-7.92-0.63-10.2-3.13c-0.63-0.69-1.63-2.13-1.42-3.18c0.2-1.03,1.08-1.27,1.99-1.8
			c1.45-0.85,1.56-1.35,2.51-2.7c1.08-1.53,2.39-4.73,3.88-5.83c2.69-1.99,6.86-2.29,9.06-0.67c1.79,1.31,2.85,3.65,3.06,5.9"/>
		<path class="st85" d="M292.94,182.57c0.06-1.06,1.15-1.47,2.07-1.33c1.13,0.17,1.48,1.11,1.97,2.14c0.74,1.57,0.91,2.82,3.25,1.24
			c0.92-0.62,0.83-2.53,0.8-3.54c-0.52-1.21-1.28,0.45-2.3-0.58c-1.27-1.28-1.27-2.42-2.48-3.49c-2.08-1.86-5.17-3.19-7.06-0.46
			c-0.07,0.11-0.11,0.23-0.16,0.33"/>
	</g>
	<g>
		<path class="st51" d="M80.01,201.77c0,0-7.87,1.64-9.84,16.4l-4.59,27.23l-22.31-13.78c0,0-5.91,4.27-5.91,9.19l26.25,21
			c0,0,12.79,7.21,17.06-9.51L80.01,201.77z"/>
		<polygon class="st52" points="65.57,245.41 70.42,250.62 67.46,244.26 68.2,231.08 		"/>
		<g>
			<path class="st1" d="M41.68,230.94c2.17,1.83,2.03,5.92,0.43,7.79l0,0c-1.6,1.87-4.65,1.9-6.83,0.07l-3.46-2.9
				c-3.28-2.04-0.94-5.16,0.65-7.03l0,0c1.6-1.86,3.57-2.66,5.75-0.83L41.68,230.94z"/>
			<path class="st1" d="M42.66,231.48c0.05,0.82-0.5,1.49-1.24,1.49l0,0c-0.74,0-1.37-0.66-1.43-1.49l-0.34-5.19
				c-0.05-0.82,0.5-1.49,1.24-1.49l0,0c0.74,0,1.38,0.67,1.43,1.48L42.66,231.48z"/>
			<path class="st1" d="M35.44,228.74c0.39,0.54,1.14,0.69,1.67,0.34l0,0c0.53-0.35,0.63-1.08,0.24-1.62l-4.61-6.31
				c-0.4-0.54-1.15-0.69-1.67-0.34l0,0c-0.53,0.36-0.63,1.08-0.24,1.62L35.44,228.74z"/>
			<path class="st1" d="M32.47,230.11c0.47,0.48,1.22,0.52,1.69,0.09l0,0c0.46-0.43,0.46-1.17-0.01-1.65l-5.48-5.63
				c-0.47-0.48-1.22-0.52-1.69-0.09l0,0c-0.46,0.43-0.46,1.17,0.01,1.65L32.47,230.11z"/>
			<path class="st1" d="M32.6,233.52c0.53,0.41,1.28,0.34,1.66-0.16l0,0c0.39-0.5,0.26-1.24-0.27-1.65l-6.24-4.79
				c-0.53-0.41-1.28-0.33-1.66,0.16l0,0c-0.38,0.5-0.27,1.24,0.27,1.65L32.6,233.52z"/>
			<path class="st1" d="M32.28,236.18c0.46,0.35,1.04,0.36,1.3,0.03l0,0c0.26-0.34,0.1-0.9-0.36-1.25l-5.38-4.12
				c-0.46-0.35-1.05-0.37-1.3-0.03l0,0c-0.26,0.34-0.1,0.9,0.36,1.25L32.28,236.18z"/>
		</g>
		<path class="st87" d="M90.03,387.07l0.29,10.55c0,0,6.56,4.13,9.26-0.71l0.29-13.26C99.86,383.65,90.17,383.65,90.03,387.07z"/>
		<path class="st88" d="M74.67,295.74l4.18,39.54c0,0,6.27,31.36,10.28,51.57c0,0,7.84,4.18,11.85-3.31l-6.79-51.92l-0.7-46.17
			l-17.25-7.32l-1.04,14.98L74.67,295.74z"/>
		<path class="st89" d="M100.62,400.95l-0.15,3.51c0,0,0.31,0.42-7.31,1.33c0,0-11.86,8.33-16.33,3.87c0,0-3.09-2.05,0.23-5.98
			l9.43-2.68L100.62,400.95z"/>
		<path class="st55" d="M100.12,394.92c0,0,0.92,6.11,0.3,7.17c0,0-3.42,0.84-5.17,0.89c0,0-3.67,0.49-9.95,4.72
			c0,0-5.55,3.29-8.45,0.1c0,0-2.17-3.13,2.36-6.32c0,0,7.59-4.61,8.32-7.66c0,0,3.21-1.94,6.34-0.51l0.27,1.71
			C94.14,395.02,99.24,395.38,100.12,394.92z"/>
		<path class="st90" d="M92.23,395.92c0,0-5.64,5.54-7.7,6.69c0,0-4.19,1.2-3.8-2.11"/>
		<path class="st90" d="M88.88,398.42c0,0-1.05-1.51-2.98-1.86"/>
		<path class="st90" d="M85.96,400.79c0,0-1.06-1.61-2.98-1.86"/>
		<path class="st87" d="M114.54,397.33l0.29,10.55c0,0,6.56,4.13,9.26-0.71l0.29-13.26C124.38,393.91,114.68,393.91,114.54,397.33z"
			/>
		<path class="st89" d="M125.98,409.34l-0.01,2.76c0,0-0.1,8.91-2.74,13.82c0,0-4.03,5.58-10.07,4.93c0,0-4.69-0.89-4.8-4.92
			l17.31-16.7"/>
		<path class="st55" d="M114.23,408.51c-1.54,7.06-3.99,9.1-4.93,11.72c-2.02,5.62-0.65,6.35-0.65,6.35
			c5.56,5.85,13.2-1.87,13.2-1.87c3.04-5.38,4.11-13.55,4.11-13.55c0.17-1.12-0.38-3.11-0.38-3.11l-0.35-1.46
			c0,0-5.13,4.28-10.55,0.71L114.23,408.51z"/>
		<path class="st90" d="M121.1,408.59l-2.3,10.37c0,0-2.02,2.79-4.47,1.98c0,0-2.26-0.77-2.07-2.77c0,0,3.94-8.42,3.43-9.58"/>
		<path class="st90" d="M119.59,414.46c0,0-3.78-1.56-4.99-1.22"/>
		<path class="st90" d="M120.73,411.33c0,0-3.78-1.56-4.99-1.22"/>
		<path class="st90" d="M118.78,417.57c0,0-4.35-1.58-5.53-1.16"/>
		<path class="st88" d="M98.15,306l5.23,39.54c0,0,6.27,31.36,10.28,51.57c0,0,7.84,4.18,11.85-3.31l-6.79-51.92l-0.7-46.17
			l-29.13-12.27l4.3,18.28L98.15,306z"/>
		<path class="st12" d="M81.19,267.45c-1.79-11.54-4.13-25.46-5.31-27.82c0,0-5.63-28.75,0.89-34.09c0,0,5.93-12.75,29.94,2.67
			l18.67,11.86c0,0,4.45,11.26,0.3,28.16"/>
		<path class="st59" d="M74.26,229.91l2.92,13.9c0,0,9.17,7.09,30.3,10.15c0,0-17.51-3.75-30.44-13.76
			C77.04,240.19,74.68,222.82,74.26,229.91z"/>
		<path class="st87" d="M95.31,275.62l-1.48-54.34l1.16-1.49l-0.58-2.49c-0.87-1.74-2.32,1.74-2.32,1.74v1.99l-5.2,49.39
			c0.24,0.26,3.24,8.36,3.24,8.36L95.31,275.62z"/>
		<path class="st21" d="M134.13,231.68c0.14-6.67-8.74-11.61-8.74-11.61s-18.43-12.34-19.51-12.52l-8.43,64.14l1.04,69.68
			c0,0,15.03,8.58,25.61,2.31l0.39-89.33L134.13,231.68z"/>
		<path class="st21" d="M86.74,336.09l3.73-123.71l2.51-8.6l-5.02-2.87c-17.2-3.76-14.87,21.85-14.87,21.85l2,41.56l-2.34,58.04
			C72.75,322.38,82.95,335.57,86.74,336.09z"/>
		<polygon class="st20" points="92.66,202.76 90.38,213.23 87.78,271.32 85.81,213.64 88.63,212.96 86.48,208.67 		"/>
		<path class="st20" d="M107.92,246.68c0,0-3.29,12.83,3.56,13.51c0,0,4.68,1.74,5.69-9.61
			C117.17,250.57,108.49,247.11,107.92,246.68z"/>
		<path class="st61" d="M72.99,213.6c0,0-0.51,15.08,1.03,31.88l0.68,10.11l-0.17-10.46L72.99,213.6z"/>
		<path class="st1" d="M58.28,255.71c3.66-4.23,2.61,2.67,11.87-0.45l0,0c2.69,1.08,4.06,3.97,3.06,6.45l-0.52,1.29
			c-2.02,5-5.11,3.17-6.67,2.55l0,0c-2.69-1.08-10.79-3.46-8.26-8.55L58.28,255.71z"/>
		<path class="st21" d="M126.27,221.13c0,0,7.55,4.27,8.2,10.17c0,0,2.34,34.45-0.61,46.58c0,0-4.31,6.56-10.21,5.58l-53.8-15.42
			c0,0,0.33-10.17,3.61-12.47l44.94,10.17l2.3-36.41"/>
		<path class="st61" d="M86.7,201.09c0,0,14.4,0.51,43.19,22.28c0,0-9.26,1.37-8.91,14.57c0,0-1.54-12,4.63-14.91
			C125.61,223.03,112.58,207.95,86.7,201.09z"/>
		<polygon class="st61" points="119.09,267.24 74.71,255.59 118.58,265.87 120.29,243.94 120.98,267.59 122.86,273.58 		"/>
		<path class="st61" d="M124.06,283.52c-0.69,0-49.36-14.39-49.36-14.39v0.86l22.96,6.86l26.69,11.55L124.06,283.52z"/>
		<polygon class="st1" points="106.32,201.03 106.04,212.83 93.52,216.86 90.86,212.55 91.7,205.24 		"/>
		<polygon class="st20" points="106.9,208 109.1,223.31 104.08,224.52 108.79,228.55 100.25,261.25 98.86,261.07 103.59,222.73 
			106.23,206.83 		"/>
		<g>
			<line class="st91" x1="90.25" y1="186.86" x2="94.41" y2="187.46"/>
			<path class="st19" d="M90.86,212.55c0.26,0.07,11.66-0.85,15.28-10.4l-6.12,0.28l-8.32,2.81L90.86,212.55z"/>
			<g>
				<path class="st1" d="M97.17,180.82c-0.96,0.23-2.93,1.86-4.36,4.75c0,0-10.16,12.84-5.83,17.95c0,0,4.65,6.77,16.58,1.21
					l6.2-7.76C109.75,196.97,111.66,177.39,97.17,180.82z"/>
				<path class="st92" d="M117.11,194.92c-2.4,4.79-8.27,11.27-14.13,9.36c-0.19-2.27,1.66-4.48,2.58-6.54
					c1.92-4.34,2.03-4.86,6.89-4.74"/>
				<path class="st93" d="M103.66,200.52c-0.53-4.93,2-8.62,0.4-10.76c-1.2-1.61-3.43-1.78-4.5-3.49c-0.82-1.3-1.07-4.48-3.32-4.42
					c-0.99,0.03-1.4,0.86-1.92,1.93c-2.12-0.42-1.45-3.89-0.49-5.33c1.31-1.97,2.77-1.9,4.82-1.15c4.13,1.52,8.4,1.59,12.48,3.38
					c3.96,1.74,6.29,4.4,6.66,8.86c0.15,1.85-0.04,3.91-0.96,5.66c-1.31,2.5-2.27,2-4.56,1.68c-4.1-0.56-5.38,1.88-8.11,4.31"/>
				<path class="st1" d="M103.94,200.89c0,0,2.2-3.65,4.36-1.95c0,0,2.89,2.63-3.44,5.56c0,0-0.85,1-2.91-0.23"/>
				<path class="st85" d="M91.66,190.04c-0.21,0.41-0.14,0.86,0.15,1.01c0.29,0.14,0.69-0.07,0.9-0.48
					c0.21-0.41,0.14-0.86-0.15-1.01C92.27,189.41,91.86,189.63,91.66,190.04z"/>
				<path class="st85" d="M95.97,195.54c-0.21,0.41-0.14,0.86,0.15,1.01c0.29,0.15,0.69-0.07,0.9-0.49
					c0.21-0.41,0.14-0.86-0.15-1.01C96.58,194.92,96.18,195.13,95.97,195.54z"/>
				<path class="st19" d="M94.14,192.37l-4.92,2.05c0,0-0.31,1.86,1.74,2.74L94.14,192.37z"/>
				<path class="st86" d="M88.45,195.97c0,0,0.71,3.31,3.7,3.48C92.14,199.46,87.51,201.56,88.45,195.97z"/>
			</g>
			<path class="st91" d="M98.99,196.06c0.4,1.75-0.23,3.4-1.4,3.7c-1.17,0.29-2.45-0.89-2.85-2.65c-0.4-1.75,0.23-3.4,1.4-3.7
				C97.31,193.12,98.59,194.31,98.99,196.06z"/>
			<path class="st91" d="M93.85,188.7c0.39,1.72-0.21,3.34-1.33,3.62c-1.13,0.28-2.36-0.89-2.75-2.61c-0.39-1.72,0.2-3.34,1.33-3.61
				C92.23,185.82,93.46,186.98,93.85,188.7z"/>
			<path class="st91" d="M93.17,190.58c0,0,1.77,0.75,2.65,3.89"/>
			<line class="st91" x1="99.1" y1="198.18" x2="107.69" y2="198.37"/>
		</g>
		<g>
			<path class="st13" d="M34.84,249.94l11.18-5.99c0,0,0.72-0.48,1.56-0.04l20.38,9.35c0,0,0.64,1.85-0.18,2.51l-10.11,6.85
				c0,0-0.94,0.81-2.56,0l-19.57-10C35.53,252.62,33.98,250.8,34.84,249.94z"/>
			<path class="st3" d="M34.92,249.66l11.1-6.51c0,0,0.72-0.48,1.56-0.04l20.22,9.74c0,0,0.79,0.7-0.02,1.36l-10.11,6.85
				c0,0-0.94,0.81-2.56,0l-19.57-10C35.53,251.05,34.06,250.52,34.92,249.66z"/>
			<polygon class="st4" points="49.04,245.43 39.04,251.43 56.04,259.87 65.54,253.37 			"/>
			<ellipse class="st87" cx="42.85" cy="247.12" rx="1.31" ry="0.81"/>
		</g>
		<path class="st1" d="M70.75,255.43c0.34,0.61,0.13,1.38-0.48,1.72l0,0c-0.61,0.34-1.38,0.13-1.72-0.48l-2.8-4.94
			c-0.34-0.61-0.13-1.38,0.48-1.72l0,0c0.61-0.34,1.38-0.13,1.72,0.48L70.75,255.43z"/>
		<path class="st20" d="M104.56,287.37c0,0,3.45,11.38,11.38,15.03v-1.22c0,0-5.98-2.39-10.56-14.22L104.56,287.37z"/>
		<path class="st20" d="M76.82,291.38c1.69-2.04,3.59-5.05,5.3-9.45l0.77,0.38c0,0-1.83,6.03-5.89,10.5"/>
		<polygon class="st5" points="68.79,253.37 59.04,259.87 42.04,251.43 44.91,249.62 		"/>
		<path class="st50" d="M53.79,142.69c0,0.53-0.55,0.95-1.23,0.95c-0.68,0-1.23-0.43-1.23-0.95c0-0.53,0.55-0.95,1.23-0.95
			C53.23,141.74,53.79,142.16,53.79,142.69z"/>
		<g>
			<g class="st94">
				<g>
					<radialGradient id="SVGID_42_" cx="45.2269" cy="163.9275" r="37.0159" gradientUnits="userSpaceOnUse">
						<stop  offset="0" style="stop-color:#CCCCD9"/>
						<stop  offset="0.1857" style="stop-color:#C3C4D4"/>
						<stop  offset="0.484" style="stop-color:#ACB0C6"/>
						<stop  offset="0.7426" style="stop-color:#9299B6"/>
					</radialGradient>
					<path class="st95" d="M26.33,174.04c0-11.25,9.12-20.37,20.37-20.37c11.25,0,20.37,9.12,20.37,20.37
						c0,11.25-9.12,20.37-20.37,20.37C35.45,194.41,26.33,185.29,26.33,174.04z"/>
				</g>
			</g>
			<g>
				<g>
					<path class="st2" d="M50.24,154.2c0,0,2.55,2.2,7.98,3.94"/>
					<path class="st2" d="M36.17,156.82c0,0,17.28,9.68,30.04,13.14"/>
					<path class="st2" d="M27.9,166.64c0,0,19.79,14.33,36.54,16.69"/>
					<path class="st2" d="M27.81,180.55c0,0,12.7,9.39,25.78,12.06"/>
					<path class="st2" d="M56.78,157.19c0,0,2.71,16.53-6.54,26.92c0,0-5.75,6.77-11.65,8.03"/>
					<path class="st2" d="M52.9,154.94c0,0-7.13,6.5-14.15,21.45c0,0-3.51,8.34-3.35,14.96"/>
					<path class="st2" d="M48.17,154.36c0,0-11.33,0.63-16.28,12.91c0,0-3.06,8.74-0.67,19.6"/>
				</g>
				<path class="st2" d="M63.82,163.31c0,0,9.56,27.65-18.95,30.9"/>
			</g>
		</g>
		<path class="st47" d="M8.54,164.29c0-10.52,17.08-19.06,38.16-19.06c21.08,0,38.16,8.53,38.16,19.06"/>
		<path class="st47" d="M84.86,164.29c0,10.52-17.08,19.05-38.16,19.05c-21.07,0-38.16-8.53-38.16-19.05"/>
		<path class="st50" d="M23.41,182.94c0,0.53-0.55,0.95-1.23,0.95c-0.68,0-1.23-0.43-1.23-0.95c0-0.53,0.55-0.95,1.23-0.95
			C22.86,181.99,23.41,182.41,23.41,182.94z"/>
		<path class="st50" d="M38.29,180.06c0,0.53-0.55,0.95-1.23,0.95c-0.68,0-1.23-0.43-1.23-0.95c0-0.53,0.55-0.95,1.23-0.95
			C37.73,179.11,38.29,179.54,38.29,180.06z"/>
		<path class="st50" d="M55.79,185.56c0,0.53-0.55,0.95-1.23,0.95c-0.68,0-1.23-0.43-1.23-0.95c0-0.53,0.55-0.95,1.23-0.95
			C55.23,184.61,55.79,185.04,55.79,185.56z"/>
		<path class="st50" d="M71.91,175.19c0,0.53-0.55,0.95-1.23,0.95c-0.68,0-1.23-0.43-1.23-0.95c0-0.53,0.55-0.95,1.23-0.95
			C71.36,174.24,71.91,174.66,71.91,175.19z"/>
		<path class="st50" d="M86.16,173.56c0,0.53-0.55,0.95-1.23,0.95c-0.68,0-1.23-0.43-1.23-0.95c0-0.53,0.55-0.95,1.23-0.95
			C85.61,172.61,86.16,173.04,86.16,173.56z"/>
		<path class="st50" d="M82.79,163.31c0,0.53-0.55,0.95-1.23,0.95c-0.68,0-1.23-0.43-1.23-0.95c0-0.53,0.55-0.95,1.23-0.95
			C82.23,162.36,82.79,162.79,82.79,163.31z"/>
		<path class="st50" d="M82.54,152.06c0,0.53-0.55,0.95-1.23,0.95c-0.68,0-1.23-0.43-1.23-0.95c0-0.53,0.55-0.95,1.23-0.95
			C81.98,151.11,82.54,151.54,82.54,152.06z"/>
		<path class="st50" d="M67.04,149.81c0,0.53-0.55,0.95-1.23,0.95c-0.68,0-1.23-0.43-1.23-0.95c0-0.53,0.55-0.95,1.23-0.95
			C66.48,148.86,67.04,149.29,67.04,149.81z"/>
		<path class="st50" d="M39.41,148.19c0,0.53-0.55,0.95-1.23,0.95c-0.68,0-1.23-0.43-1.23-0.95c0-0.53,0.55-0.95,1.23-0.95
			C38.86,147.24,39.41,147.66,39.41,148.19z"/>
		<path class="st50" d="M24.79,146.69c0,0.53-0.55,0.95-1.23,0.95c-0.68,0-1.23-0.43-1.23-0.95c0-0.53,0.55-0.95,1.23-0.95
			C24.23,145.74,24.79,146.16,24.79,146.69z"/>
		<path class="st50" d="M18.29,155.81c0,0.53-0.55,0.95-1.23,0.95c-0.68,0-1.23-0.43-1.23-0.95c0-0.53,0.55-0.95,1.23-0.95
			C17.73,154.86,18.29,155.29,18.29,155.81z"/>
		<path class="st50" d="M7.91,168.56c0,0.53-0.55,0.95-1.23,0.95c-0.68,0-1.23-0.43-1.23-0.95c0-0.53,0.55-0.95,1.23-0.95
			C7.36,167.61,7.91,168.04,7.91,168.56z"/>
		<path class="st50" d="M18.29,173.06c0,0.53-0.55,0.95-1.23,0.95c-0.68,0-1.23-0.43-1.23-0.95c0-0.53,0.55-0.95,1.23-0.95
			C17.73,172.11,18.29,172.54,18.29,173.06z"/>
		<path class="st96" d="M30.04,185.89c0,0,5.82,9.32,18.63,8.73c0,0,8.15-0.29,15.14-9.02l-12.23,64.92c0,0-3.49,2.33-5.53,0
			L30.04,185.89z"/>
	</g>
</g>
</svg>
